<svg xmlns="http://www.w3.org/2000/svg" viewBox="0 0 64 64" width="64" height="64">
  <!-- CorgiTrack — мордочка пемброка -->
  <rect width="64" height="64" rx="14" fill="#FBEFE2"/>
  <!-- уши -->
  <path d="M14 14 L22 30 L8 30 Z" fill="#C9742B"/>
  <path d="M50 14 L56 30 L42 30 Z" fill="#C9742B"/>
  <path d="M16 18 L21 29 L12 29 Z" fill="#F2C79B"/>
  <path d="M48 18 L52 29 L43 29 Z" fill="#F2C79B"/>
  <!-- голова -->
  <path d="M12 30 Q12 22 20 20 L44 20 Q52 22 52 30 L52 40 Q52 50 32 52 Q12 50 12 40 Z" fill="#E0913F"/>
  <!-- кремовая морда -->
  <path d="M22 36 Q22 30 32 30 Q42 30 42 36 L42 44 Q42 50 32 51 Q22 50 22 44 Z" fill="#FFF8F0"/>
  <!-- кремовая полоса на лбу -->
  <path d="M30 20 L34 20 L33 32 L31 32 Z" fill="#FFF8F0"/>
  <!-- глаза -->
  <circle cx="25" cy="33" r="2.6" fill="#4A342A"/>
  <circle cx="39" cy="33" r="2.6" fill="#4A342A"/>
  <circle cx="25.8" cy="32.2" r="0.8" fill="#FFF8F0"/>
  <circle cx="39.8" cy="32.2" r="0.8" fill="#FFF8F0"/>
  <!-- нос -->
  <path d="M29 40 Q32 43 35 40 Q35 43 32 44 Q29 43 29 40 Z" fill="#4A342A"/>
  <!-- щёки -->
  <circle cx="20" cy="40" r="2" fill="#F4B6A0" opacity="0.7"/>
  <circle cx="44" cy="40" r="2" fill="#F4B6A0" opacity="0.7"/>
</svg>
